<?xml version="1.0" encoding="UTF-8"?>
<svg width="123px" height="112px" viewBox="0 0 123 112" version="1.1" xmlns="http://www.w3.org/2000/svg" xmlns:xlink="http://www.w3.org/1999/xlink">
    <title>Busca</title>
    <g id="HOME-(Propuesta-elegida)" stroke="none" stroke-width="1" fill="none" fill-rule="evenodd">
        <g id="Iconos-home" transform="translate(-192.000000, -1080.000000)">
            <g id="Group-7" transform="translate(167.000000, 1020.000000)">
                <g id="Busca" transform="translate(25.000000, 60.000000)">
                    <path d="M84.0842411,19.7037037 L95.0568809,19.7037037 C95.6649235,19.7037037 96.1594097,19.206963 96.1594097,18.5961481 L96.1594097,11.4779259 C96.1594097,10.8671111 95.6649235,10.3703704 95.0568809,10.3703704 L62.1627051,10.3703704 C61.5546625,10.3703704 61.0601763,10.8671111 61.0601763,11.4779259 L61.0601763,18.5961481 C61.0601763,19.206963 61.5546625,19.7037037 62.1627051,19.7037037 L73.1353449,19.7037037 L74.7406187,17.2853333 C75.0276065,16.8528889 75.5107372,16.5925926 76.028967,16.5925926 L81.190619,16.5925926 C81.7088488,16.5925926 82.1919795,16.8528889 82.4789673,17.2853333 L84.0842411,19.7037037 Z M95.0568809,22.8148148 L83.2552798,22.8148148 C82.7370499,22.8148148 82.2539193,22.5545185 81.9669314,22.1220741 L80.3616577,19.7037037 L76.8579283,19.7037037 L75.2526546,22.1220741 C74.9656667,22.5545185 74.4825361,22.8148148 73.9643062,22.8148148 L62.1627051,22.8148148 C59.8471881,22.8148148 57.9631851,20.9222222 57.9631851,18.5961481 L57.9631851,11.4779259 C57.9631851,9.15185185 59.8471881,7.25925926 62.1627051,7.25925926 L95.0568809,7.25925926 C97.3723979,7.25925926 99.2564009,9.15185185 99.2564009,11.4779259 L99.2564009,18.5961481 C99.2564009,20.9222222 97.3723979,22.8148148 95.0568809,22.8148148 L95.0568809,22.8148148 Z" id="Fill-348" fill="#333333"></path>
                    <path d="M118.805642,112 L38.4139444,112 C36.1015243,112 34.219586,110.109481 34.219586,107.786519 L34.219586,100.074074 C34.219586,99.2154074 34.913312,98.5185185 35.7680816,98.5185185 C36.6228512,98.5185185 37.3165772,99.2154074 37.3165772,100.074074 L37.3165772,107.786519 C37.3165772,108.393185 37.8100311,108.888889 38.4139444,108.888889 L118.805642,108.888889 C119.409555,108.888889 119.903009,108.393185 119.903009,107.786519 L119.903009,14.5838519 C119.903009,13.9771852 119.409555,13.4814815 118.805642,13.4814815 L103.901888,13.4814815 C103.047118,13.4814815 102.353392,12.7845926 102.353392,11.9259259 C102.353392,11.0672593 103.047118,10.3703704 103.901888,10.3703704 L118.805642,10.3703704 C121.118062,10.3703704 123,12.2608889 123,14.5838519 L123,107.786519 C123,110.109481 121.118062,112 118.805642,112" id="Fill-349" fill="#333333"></path>
                    <path d="M35.7680816,31.1111111 C34.913312,31.1111111 34.219586,30.4142222 34.219586,29.5555556 L34.219586,14.5838519 C34.219586,12.2608889 36.1015243,10.3703704 38.4139444,10.3703704 L53.3176983,10.3703704 C54.1724679,10.3703704 54.8661939,11.0672593 54.8661939,11.9259259 C54.8661939,12.7845926 54.1724679,13.4814815 53.3176983,13.4814815 L38.4139444,13.4814815 C37.8100311,13.4814815 37.3165772,13.9771852 37.3165772,14.5838519 L37.3165772,29.5555556 C37.3165772,30.4142222 36.6228512,31.1111111 35.7680816,31.1111111" id="Fill-350" fill="#333333"></path>
                    <path d="M91.5139229,8.2962963 C90.6591534,8.2962963 89.9654273,7.59940741 89.9654273,6.74074074 L89.9654273,4.66148148 C89.9654273,3.80696296 89.2727337,3.11111111 88.4220934,3.11111111 L68.7974926,3.11111111 C67.9468523,3.11111111 67.2541587,3.80696296 67.2541587,4.66148148 L67.2541587,6.74074074 C67.2541587,7.59940741 66.5604326,8.2962963 65.7056631,8.2962963 C64.8508935,8.2962963 64.1571675,7.59940741 64.1571675,6.74074074 L64.1571675,4.66148148 C64.1571675,2.0917037 66.2393779,7.10542736e-15 68.7974926,7.10542736e-15 L88.4220934,7.10542736e-15 C90.9802081,7.10542736e-15 93.0624185,2.0917037 93.0624185,4.66148148 L93.0624185,6.74074074 C93.0624185,7.59940741 92.3686925,8.2962963 91.5139229,8.2962963" id="Fill-351" fill="#333333"></path>
                    <path d="M91.5139229,16.5925926 L90.4815925,16.5925926 C89.626823,16.5925926 88.933097,15.8957037 88.933097,15.037037 C88.933097,14.1783704 89.626823,13.4814815 90.4815925,13.4814815 L91.5139229,13.4814815 C92.3686925,13.4814815 93.0624185,14.1783704 93.0624185,15.037037 C93.0624185,15.8957037 92.3686925,16.5925926 91.5139229,16.5925926" id="Fill-352" fill="#333333"></path>
                    <path d="M66.7379935,16.5925926 L65.7056631,16.5925926 C64.8508935,16.5925926 64.1571675,15.8957037 64.1571675,15.037037 C64.1571675,14.1783704 64.8508935,13.4814815 65.7056631,13.4814815 L66.7379935,13.4814815 C67.592763,13.4814815 68.286489,14.1783704 68.286489,15.037037 C68.286489,15.8957037 67.592763,16.5925926 66.7379935,16.5925926" id="Fill-353" fill="#333333"></path>
                    <path d="M19.4190651,77.8648889 L17.9387033,79.4214815 C16.8351421,80.582963 16.4480182,82.150963 16.7236505,83.6162963 L3.064887,98.3536296 C1.00125854,100.478519 1.04358408,103.882074 3.15882907,105.956148 L4.25413161,107.028444 C6.36834426,109.101481 9.75748495,109.06 11.8211134,106.934074 L25.6161445,92.0557037 C27.0531484,92.2247407 28.5438335,91.756 29.6184894,90.6245926 L31.0988512,89.066963 L19.4190651,77.8648889" id="Fill-354" fill="#FCD64C"></path>
                    <path d="M7.98807065,110.112593 C6.17736314,110.112593 4.470921,109.414667 3.17224936,108.141185 L2.07797914,107.069926 C-0.644276111,104.399556 -0.698989622,100.003556 1.95616415,97.2678519 L15.1008271,83.0832593 C15.0017234,81.3368889 15.6159599,79.6133333 16.8196572,78.3471111 L18.2989866,76.7905185 C18.890512,76.1682963 19.8701935,76.1475556 20.4885594,76.7397037 C21.1069253,77.3328889 21.1296366,78.3180741 20.5391436,78.9392593 L19.0587818,80.4958519 C18.3444092,81.2477037 18.0481304,82.2795556 18.2442731,83.328 C18.3361505,83.8133333 18.1926566,84.3142222 17.8561169,84.6761481 L4.19838577,99.4134815 C2.71079767,100.947259 2.73970292,103.371852 4.24071132,104.843407 L5.33498154,105.914667 C6.0503865,106.616741 6.99187182,107.001481 7.98910298,107.001481 C9.05343562,106.988 10.0031796,106.57837 10.7123906,105.848296 L24.4826457,90.9948148 C24.8191854,90.6328889 25.2992191,90.4514074 25.7968023,90.5094815 C26.8136477,90.634963 27.8036526,90.2802963 28.4984109,89.5512593 L29.9787727,87.9925926 C30.5702981,87.3714074 31.5489473,87.3485926 32.1683455,87.9417778 C32.7856791,88.534963 32.8094227,89.5191111 32.2189297,90.1413333 L30.7385679,91.698963 C29.5555173,92.9423704 27.9574698,93.6299259 26.258254,93.6454815 L12.9535799,107.994963 C11.6425203,109.345185 9.91852849,110.088741 8.07581874,110.111556 C8.04588116,110.111556 8.01697591,110.112593 7.98807065,110.112593" id="Fill-355" fill="#252D32"></path>
                    <path d="M21.462047,50.5607407 C14.7766753,64.7754074 20.8498751,81.8035556 34.9989954,88.5194074 C49.1491482,95.2373333 66.1000133,89.1343704 72.7853849,74.9207407 C79.4707565,60.7060741 73.3975568,43.6779259 59.2484364,36.9620741 C45.1013807,30.2472593 28.1484509,36.3471111 21.462047,50.5607407 Z M47.0741641,94.361037 C42.5742359,94.361037 38.0082386,93.3893333 33.6765802,91.3328889 C17.9820612,83.8838519 11.2471377,64.9973333 18.6613346,49.2322963 C26.0775962,33.4672593 44.8783973,26.7016296 60.5708517,34.1485926 C76.2653707,41.5976296 83.0002942,60.4841481 75.5860973,76.2491852 C70.2169469,87.6628148 58.8788622,94.361037 47.0741641,94.361037 L47.0741641,94.361037 Z" id="Fill-356" fill="#252D32"></path>
                    <path d="M24.2214661,93.0471111 C23.8498272,93.0471111 23.4771559,92.9133333 23.1808771,92.6426667 L19.4490027,89.2380741 C18.8161842,88.6604444 18.7697293,87.6762963 19.3447373,87.0405926 C19.9207777,86.4048889 20.9014916,86.3592593 21.5322454,86.9348148 L25.2630875,90.3394074 C25.8969384,90.917037 25.9423609,91.9011852 25.3683852,92.5368889 C25.0628154,92.874963 24.6426569,93.0471111 24.2214661,93.0471111" id="Fill-357" fill="#252D32"></path>
                    <path d="M58.4793503,79.8518519 L33.7034208,79.8518519 C32.8486512,79.8518519 32.1549252,79.154963 32.1549252,78.2962963 L32.1549252,61.7037037 C32.1549252,60.845037 32.8486512,60.1481481 33.7034208,60.1481481 C34.5581904,60.1481481 35.2519164,60.845037 35.2519164,61.7037037 L35.2519164,76.7407407 L56.9308547,76.7407407 L56.9308547,57.5555556 C56.9308547,56.6968889 57.6245807,56 58.4793503,56 C59.3341199,56 60.0278459,56.6968889 60.0278459,57.5555556 L60.0278459,78.2962963 C60.0278459,79.154963 59.3341199,79.8518519 58.4793503,79.8518519" id="Fill-358" fill="#333333"></path>
                    <path d="M35.3520524,54.962963 L56.8307186,54.962963 L46.0913855,45.837037 L35.3520524,54.962963 Z M61.0601763,58.0740741 L31.1225948,58.0740741 C30.4722267,58.0740741 29.892057,57.6654815 29.6690736,57.0536296 C29.4450579,56.4407407 29.6267481,55.7531852 30.1222667,55.3300741 L45.0910574,42.6118519 C45.6681301,42.1213333 46.514641,42.1213333 47.0917137,42.6118519 L62.0605044,55.3300741 C62.556023,55.7531852 62.7377132,56.4407407 62.5136975,57.0536296 C62.2907141,57.6654815 61.7105444,58.0740741 61.0601763,58.0740741 L61.0601763,58.0740741 Z" id="Fill-359" fill="#333333"></path>
                    <polygon id="Fill-360" fill="#78BE20" points="42.4782292 70.5185185 49.7045419 70.5185185 49.7045419 63.2592593 42.4782292 63.2592593"></polygon>
                    <path d="M99.0829694,52.0105185 C99.6724301,52.0105185 100.209242,51.8632593 100.69134,51.5666667 C101.173438,51.269037 101.562627,50.8801481 101.857874,50.3948148 C102.15312,49.9094815 102.299711,49.3805926 102.299711,48.8060741 C102.299711,48.2315556 102.15312,47.7016296 101.857874,47.2162963 C101.562627,46.732 101.169309,46.3420741 100.67792,46.0444444 C100.185498,45.7488889 99.6548804,45.6005926 99.0829694,45.6005926 C98.510026,45.6005926 97.9794082,45.7437037 97.4869866,46.032 C96.9955973,46.3192593 96.6074411,46.7091852 96.3204533,47.2038519 C96.0355301,47.6974815 95.8920361,48.2315556 95.8920361,48.8060741 C95.8920361,49.3982222 96.0355301,49.9364444 96.3204533,50.4217778 C96.6074411,50.9060741 96.9955973,51.2928889 97.4869866,51.5791111 C97.9794082,51.8674074 98.510026,52.0105185 99.0829694,52.0105185 Z M99.0829694,54.0576296 C98.1352901,54.0576296 97.2629709,53.8191111 96.4691088,53.3431111 C95.6731821,52.8681481 95.0382989,52.2355556 94.5654916,51.4442963 C94.0916519,50.6551111 93.8552483,49.7746667 93.8552483,48.8060741 C93.8552483,47.8551111 94.0916519,46.9788148 94.5654916,46.1792593 C95.0382989,45.3807407 95.6680205,44.744 96.4546562,44.268 C97.241292,43.792 98.1167082,43.5534815 99.0829694,43.5534815 C100.048198,43.5534815 100.927744,43.7878519 101.723671,44.2545185 C102.518565,44.7211852 103.152416,45.3537778 103.626255,46.1533333 C104.100095,46.9518519 104.337531,47.8364444 104.337531,48.8060741 C104.337531,49.7746667 104.100095,50.6551111 103.626255,51.4442963 C103.152416,52.2355556 102.518565,52.8681481 101.723671,53.3431111 C100.927744,53.8191111 100.048198,54.0576296 99.0829694,54.0576296 Z M86.2676199,54.0576296 C85.9816644,54.0576296 85.7390667,53.9591111 85.5429239,53.761037 C85.3457488,53.564 85.2487098,53.312 85.2487098,53.0071111 C85.2487098,52.7374815 85.3292315,52.5051852 85.4892428,52.3060741 L100.209242,33.4268148 C100.333122,33.3013333 100.463195,33.1986667 100.597398,33.1177778 C100.731601,33.0358519 100.878192,32.9954074 101.040268,32.9954074 C101.342741,32.9954074 101.593597,33.0991111 101.790772,33.3054815 C101.987947,33.5118519 102.084986,33.769037 102.084986,34.0728889 C102.084986,34.3072593 102.023046,34.5136296 101.898134,34.693037 L87.0707729,53.7071111 C86.8395309,53.9414815 86.571125,54.0576296 86.2676199,54.0576296 Z M88.223886,41.4794074 C88.795797,41.4794074 89.3233178,41.3311111 89.8064485,41.0355556 C90.2885468,40.738963 90.676703,40.348 90.9729818,39.8637037 C91.267196,39.3794074 91.4148192,38.8494815 91.4148192,38.274963 C91.4148192,37.6828148 91.267196,37.1435556 90.9729818,36.6592593 C90.676703,36.1739259 90.2844174,35.784 89.7930282,35.4874074 C89.3006066,35.1918519 88.7782474,35.0425185 88.223886,35.0425185 C87.6519749,35.0425185 87.1203248,35.1918519 86.6299678,35.4874074 C86.1375462,35.784 85.7442284,36.1739259 85.4489819,36.6592593 C85.1547677,37.1435556 85.0071445,37.6828148 85.0071445,38.274963 C85.0071445,38.8494815 85.1547677,39.3794074 85.4489819,39.8637037 C85.7442284,40.348 86.1334169,40.738963 86.6155152,41.0355556 C87.0986458,41.3311111 87.6344253,41.4794074 88.223886,41.4794074 Z M88.223886,43.5275556 C87.2596894,43.5275556 86.3780792,43.289037 85.5831848,42.813037 C84.7872581,42.337037 84.1534072,41.7002963 83.6795676,40.9007407 C83.2057279,40.1022222 82.9693243,39.226963 82.9693243,38.274963 C82.9693243,37.322963 83.2057279,36.4477037 83.6795676,35.6491852 C84.1534072,34.8496296 84.7872581,34.2077037 85.5831848,33.7234074 C86.3780792,33.2380741 87.2596894,32.9954074 88.223886,32.9954074 C89.1705329,32.9954074 90.0428521,33.2380741 90.8387789,33.7234074 C91.6336733,34.2077037 92.2675241,34.8496296 92.7413638,35.6491852 C93.2152034,36.4477037 93.4526394,37.322963 93.4526394,38.274963 C93.4526394,39.226963 93.2152034,40.1022222 92.7413638,40.9007407 C92.2675241,41.7002963 91.6336733,42.337037 90.8387789,42.813037 C90.0428521,43.289037 89.1705329,43.5275556 88.223886,43.5275556 L88.223886,43.5275556 Z" id="Fill-361" fill="#78BE20"></path>
                    <path d="M102.869557,65.3333333 L90.4815925,65.3333333 C89.626823,65.3333333 88.933097,64.6364444 88.933097,63.7777778 C88.933097,62.9191111 89.626823,62.2222222 90.4815925,62.2222222 L102.869557,62.2222222 C103.724327,62.2222222 104.418053,62.9191111 104.418053,63.7777778 C104.418053,64.6364444 103.724327,65.3333333 102.869557,65.3333333" id="Fill-362" fill="#333333"></path>
                    <path d="M102.869557,76.7407407 L84.2876102,76.7407407 C83.4328406,76.7407407 82.7391146,76.0438519 82.7391146,75.1851852 C82.7391146,74.3265185 83.4328406,73.6296296 84.2876102,73.6296296 L102.869557,73.6296296 C103.724327,73.6296296 104.418053,74.3265185 104.418053,75.1851852 C104.418053,76.0438519 103.724327,76.7407407 102.869557,76.7407407" id="Fill-363" fill="#333333"></path>
                    <path d="M102.869557,88.1481481 L77.0612974,88.1481481 C76.2065278,88.1481481 75.5128018,87.4512593 75.5128018,86.5925926 C75.5128018,85.7339259 76.2065278,85.037037 77.0612974,85.037037 L102.869557,85.037037 C103.724327,85.037037 104.418053,85.7339259 104.418053,86.5925926 C104.418053,87.4512593 103.724327,88.1481481 102.869557,88.1481481" id="Fill-364" fill="#333333"></path>
                </g>
            </g>
        </g>
    </g>
</svg>